<svg width="33" height="33" viewBox="0 0 33 33" fill="none" xmlns="http://www.w3.org/2000/svg">
<g clip-path="url(#clip0_285_234)">
<path d="M9.8946 19.25C9.8946 19.6147 9.75138 19.9644 9.49644 20.2223C9.24151 20.4801 8.89574 20.625 8.53521 20.625H7.17583C6.8153 20.625 6.46953 20.4801 6.2146 20.2223C5.95966 19.9644 5.81644 19.6147 5.81644 19.25C5.81644 18.8853 5.95966 18.5356 6.2146 18.2777C6.46953 18.0199 6.8153 17.875 7.17583 17.875H8.53521C8.89574 17.875 9.24151 18.0199 9.49644 18.2777C9.75138 18.5356 9.8946 18.8853 9.8946 19.25ZM15.3321 17.875H13.9728C13.6122 17.875 13.2665 18.0199 13.0115 18.2777C12.7566 18.5356 12.6134 18.8853 12.6134 19.25C12.6134 19.6147 12.7566 19.9644 13.0115 20.2223C13.2665 20.4801 13.6122 20.625 13.9728 20.625H15.3321C15.6927 20.625 16.0384 20.4801 16.2934 20.2223C16.5483 19.9644 16.6915 19.6147 16.6915 19.25C16.6915 18.8853 16.5483 18.5356 16.2934 18.2777C16.0384 18.0199 15.6927 17.875 15.3321 17.875ZM8.53521 23.375H7.17583C6.8153 23.375 6.46953 23.5199 6.2146 23.7777C5.95966 24.0356 5.81644 24.3853 5.81644 24.75C5.81644 25.1147 5.95966 25.4644 6.2146 25.7223C6.46953 25.9801 6.8153 26.125 7.17583 26.125H8.53521C8.89574 26.125 9.24151 25.9801 9.49644 25.7223C9.75138 25.4644 9.8946 25.1147 9.8946 24.75C9.8946 24.3853 9.75138 24.0356 9.49644 23.7777C9.24151 23.5199 8.89574 23.375 8.53521 23.375ZM15.3321 23.375H13.9728C13.6122 23.375 13.2665 23.5199 13.0115 23.7777C12.7566 24.0356 12.6134 24.3853 12.6134 24.75C12.6134 25.1147 12.7566 25.4644 13.0115 25.7223C13.2665 25.9801 13.6122 26.125 13.9728 26.125H15.3321C15.6927 26.125 16.0384 25.9801 16.2934 25.7223C16.5483 25.4644 16.6915 25.1147 16.6915 24.75C16.6915 24.3853 16.5483 24.0356 16.2934 23.7777C16.0384 23.5199 15.6927 23.375 15.3321 23.375ZM8.53521 6.875H7.17583C6.8153 6.875 6.46953 7.01987 6.2146 7.27773C5.95966 7.53559 5.81644 7.88533 5.81644 8.25C5.81644 8.61467 5.95966 8.96441 6.2146 9.22227C6.46953 9.48013 6.8153 9.625 7.17583 9.625H8.53521C8.89574 9.625 9.24151 9.48013 9.49644 9.22227C9.75138 8.96441 9.8946 8.61467 9.8946 8.25C9.8946 7.88533 9.75138 7.53559 9.49644 7.27773C9.24151 7.01987 8.89574 6.875 8.53521 6.875ZM15.3321 6.875H13.9728C13.6122 6.875 13.2665 7.01987 13.0115 7.27773C12.7566 7.53559 12.6134 7.88533 12.6134 8.25C12.6134 8.61467 12.7566 8.96441 13.0115 9.22227C13.2665 9.48013 13.6122 9.625 13.9728 9.625H15.3321C15.6927 9.625 16.0384 9.48013 16.2934 9.22227C16.5483 8.96441 16.6915 8.61467 16.6915 8.25C16.6915 7.88533 16.5483 7.53559 16.2934 7.27773C16.0384 7.01987 15.6927 6.875 15.3321 6.875ZM8.53521 12.375H7.17583C6.8153 12.375 6.46953 12.5199 6.2146 12.7777C5.95966 13.0356 5.81644 13.3853 5.81644 13.75C5.81644 14.1147 5.95966 14.4644 6.2146 14.7223C6.46953 14.9801 6.8153 15.125 7.17583 15.125H8.53521C8.89574 15.125 9.24151 14.9801 9.49644 14.7223C9.75138 14.4644 9.8946 14.1147 9.8946 13.75C9.8946 13.3853 9.75138 13.0356 9.49644 12.7777C9.24151 12.5199 8.89574 12.375 8.53521 12.375ZM15.3321 12.375H13.9728C13.6122 12.375 13.2665 12.5199 13.0115 12.7777C12.7566 13.0356 12.6134 13.3853 12.6134 13.75C12.6134 14.1147 12.7566 14.4644 13.0115 14.7223C13.2665 14.9801 13.6122 15.125 13.9728 15.125H15.3321C15.6927 15.125 16.0384 14.9801 16.2934 14.7223C16.5483 14.4644 16.6915 14.1147 16.6915 13.75C16.6915 13.3853 16.5483 13.0356 16.2934 12.7777C16.0384 12.5199 15.6927 12.375 15.3321 12.375ZM33.0041 13.75V26.125C33.002 27.9477 32.2852 29.6951 31.011 30.9839C29.7368 32.2728 28.0092 32.9978 26.2072 33H7.17583C5.37384 32.9978 3.64627 32.2728 2.37206 30.9839C1.09786 29.6951 0.381065 27.9477 0.378906 26.125L0.378906 6.875C0.381065 5.05231 1.09786 3.30489 2.37206 2.01605C3.64627 0.727213 5.37384 0.0021833 7.17583 0L15.3321 0C17.1341 0.0021833 18.8617 0.727213 20.1359 2.01605C21.4101 3.30489 22.1269 5.05231 22.1291 6.875H26.2072C28.0092 6.87718 29.7368 7.60221 31.011 8.89105C32.2852 10.1799 33.002 11.9273 33.0041 13.75ZM7.17583 30.25H19.4103V6.875C19.4103 5.78098 18.9806 4.73177 18.2158 3.95818C17.451 3.1846 16.4137 2.75 15.3321 2.75H7.17583C6.09423 2.75 5.05694 3.1846 4.29214 3.95818C3.52734 4.73177 3.09768 5.78098 3.09768 6.875V26.125C3.09768 27.219 3.52734 28.2682 4.29214 29.0418C5.05694 29.8154 6.09423 30.25 7.17583 30.25ZM30.2854 13.75C30.2854 12.656 29.8557 11.6068 29.0909 10.8332C28.3261 10.0596 27.2888 9.625 26.2072 9.625H22.1291V30.25H26.2072C27.2888 30.25 28.3261 29.8154 29.0909 29.0418C29.8557 28.2682 30.2854 27.219 30.2854 26.125V13.75ZM26.2072 17.875C25.9383 17.875 25.6755 17.9556 25.452 18.1067C25.2284 18.2578 25.0542 18.4726 24.9513 18.7238C24.8484 18.9751 24.8215 19.2515 24.8739 19.5182C24.9264 19.785 25.0559 20.03 25.246 20.2223C25.4361 20.4146 25.6783 20.5455 25.942 20.5986C26.2057 20.6516 26.479 20.6244 26.7274 20.5203C26.9758 20.4163 27.1881 20.24 27.3375 20.0139C27.4869 19.7878 27.5666 19.5219 27.5666 19.25C27.5666 18.8853 27.4234 18.5356 27.1684 18.2777C26.9135 18.0199 26.5677 17.875 26.2072 17.875ZM26.2072 23.375C25.9383 23.375 25.6755 23.4556 25.452 23.6067C25.2284 23.7578 25.0542 23.9726 24.9513 24.2238C24.8484 24.4751 24.8215 24.7515 24.8739 25.0182C24.9264 25.285 25.0559 25.53 25.246 25.7223C25.4361 25.9146 25.6783 26.0455 25.942 26.0986C26.2057 26.1516 26.479 26.1244 26.7274 26.0203C26.9758 25.9163 27.1881 25.74 27.3375 25.5139C27.4869 25.2878 27.5666 25.0219 27.5666 24.75C27.5666 24.3853 27.4234 24.0356 27.1684 23.7777C26.9135 23.5199 26.5677 23.375 26.2072 23.375ZM26.2072 12.375C25.9383 12.375 25.6755 12.4556 25.452 12.6067C25.2284 12.7578 25.0542 12.9726 24.9513 13.2238C24.8484 13.4751 24.8215 13.7515 24.8739 14.0182C24.9264 14.285 25.0559 14.53 25.246 14.7223C25.4361 14.9146 25.6783 15.0455 25.942 15.0986C26.2057 15.1516 26.479 15.1244 26.7274 15.0203C26.9758 14.9163 27.1881 14.74 27.3375 14.5139C27.4869 14.2878 27.5666 14.0219 27.5666 13.75C27.5666 13.3853 27.4234 13.0356 27.1684 12.7777C26.9135 12.5199 26.5677 12.375 26.2072 12.375Z" fill="#374957"/>
</g>
<defs>
<clipPath id="clip0_285_234">
<rect width="32.6252" height="33" fill="white" transform="translate(0.378906)"/>
</clipPath>
</defs>
</svg>
