<svg width="24" height="23" viewBox="0 0 24 23" fill="none" xmlns="http://www.w3.org/2000/svg">
<path d="M18.6616 16.6701L13.58 21.7532C13.3798 21.9535 13.142 22.1125 12.8803 22.2209C12.6186 22.3294 12.3381 22.3852 12.0548 22.3852C11.7716 22.3852 11.4911 22.3294 11.2294 22.2209C10.9677 22.1125 10.7299 21.9535 10.5296 21.7532L5.44806 16.6701C4.58035 15.8025 3.89203 14.7725 3.42239 13.6389C2.95276 12.5052 2.711 11.2902 2.71094 10.0632C2.71087 8.8361 2.95249 7.62105 3.42201 6.48737C3.89152 5.35369 4.57973 4.32358 5.44734 3.45588C6.31496 2.58817 7.34499 1.89984 8.47861 1.43021C9.61224 0.96057 10.8273 0.718817 12.0543 0.71875C13.2814 0.718683 14.4964 0.960304 15.6301 1.42982C16.7638 1.89933 17.7939 2.58754 18.6616 3.45516C19.5294 4.32282 20.2178 5.35293 20.6874 6.48665C21.1571 7.62038 21.3988 8.8355 21.3988 10.0627C21.3988 11.2898 21.1571 12.5049 20.6874 13.6387C20.2178 14.7724 19.5294 15.8025 18.6616 16.6701ZM17.1379 4.98035C16.4704 4.31284 15.6779 3.78334 14.8058 3.42208C13.9336 3.06083 12.9988 2.87489 12.0548 2.87489C11.1108 2.87489 10.1761 3.06083 9.30393 3.42208C8.43178 3.78334 7.63933 4.31284 6.97182 4.98035C6.30431 5.64786 5.77481 6.44031 5.41355 7.31246C5.0523 8.18461 4.86636 9.11937 4.86636 10.0634C4.86636 11.0074 5.0523 11.9421 5.41355 12.8143C5.77481 13.6864 6.30431 14.4789 6.97182 15.1464L12.0548 20.2265L17.1379 15.1464C17.8055 14.4789 18.3351 13.6865 18.6964 12.8144C19.0577 11.9422 19.2437 11.0074 19.2437 10.0634C19.2437 9.11933 19.0577 8.18454 18.6964 7.31239C18.3351 6.44023 17.8055 5.6478 17.1379 4.98035ZM12.0548 12.9384C11.672 12.947 11.2912 12.8791 10.935 12.7386C10.5787 12.5981 10.2541 12.3878 9.98027 12.1202C9.7064 11.8525 9.48877 11.5328 9.34015 11.1798C9.19153 10.8269 9.11493 10.4478 9.11483 10.0648C9.11474 9.68186 9.19115 9.30274 9.33959 8.94972C9.48803 8.5967 9.7055 8.27689 9.97924 8.00907C10.253 7.74125 10.5775 7.53082 10.9337 7.39013C11.2898 7.24944 11.6705 7.18133 12.0534 7.1898C12.8046 7.20641 13.5194 7.51643 14.0449 8.05351C14.5703 8.59058 14.8647 9.31202 14.8649 10.0634C14.865 10.8148 14.5711 11.5363 14.0459 12.0737C13.5207 12.611 12.806 12.9214 12.0548 12.9384Z" fill="#737373"/>
</svg>
