<svg width="41" height="48" viewBox="0 0 41 48" fill="none" xmlns="http://www.w3.org/2000/svg">
<path d="M34.9948 35.3388L23.8461 46.5998C23.4068 47.0437 22.8852 47.3958 22.311 47.6361C21.7369 47.8763 21.1214 48 20.4999 48C19.8784 48 19.263 47.8763 18.6889 47.6361C18.1147 47.3958 17.5931 47.0437 17.1538 46.5998L6.00508 35.3388C4.10138 33.4167 2.59125 31.1348 1.56089 28.6233C0.530538 26.1119 0.000146479 23.4201 3.03357e-08 20.7017C-0.000146418 17.9832 0.529955 15.2914 1.56004 12.7798C2.59012 10.2683 4.10001 7.98617 6.00351 6.06384C7.907 4.14151 10.1668 2.6166 12.6539 1.57617C15.141 0.535729 17.8067 0.000147872 20.4988 3.06158e-08C23.1909 -0.000147811 25.8567 0.535141 28.3439 1.5753C30.8311 2.61547 33.0911 4.14013 34.9948 6.06225C36.8987 7.98449 38.4089 10.2666 39.4393 12.7782C40.4697 15.2899 41 17.9819 41 20.7005C41 23.4192 40.4697 26.1112 39.4393 28.6228C38.4089 31.1345 36.8987 33.4166 34.9948 35.3388ZM31.6518 9.44117C30.1873 7.96236 28.4487 6.78931 26.5353 5.98898C24.6218 5.18866 22.571 4.77673 20.4999 4.77673C18.4289 4.77673 16.3781 5.18866 14.4646 5.98898C12.5512 6.78931 10.8126 7.96236 9.34811 9.44117C7.88363 10.92 6.72194 12.6756 5.92937 14.6077C5.1368 16.5399 4.72887 18.6108 4.72887 20.7021C4.72887 22.7935 5.1368 24.8644 5.92937 26.7965C6.72194 28.7287 7.88363 30.4843 9.34811 31.9631L20.4999 43.2177L31.6518 31.9631C33.1165 30.4844 34.2784 28.7289 35.0711 26.7967C35.8639 24.8645 36.2719 22.7936 36.2719 20.7021C36.2719 18.6107 35.8639 16.5398 35.0711 14.6076C34.2784 12.6754 33.1165 10.9198 31.6518 9.44117ZM20.4999 27.0714C19.66 27.0906 18.8247 26.9402 18.0431 26.6289C17.2615 26.3176 16.5493 25.8517 15.9485 25.2587C15.3476 24.6657 14.8701 23.9574 14.5441 23.1755C14.218 22.3936 14.05 21.5538 14.0497 20.7053C14.0495 19.8569 14.2172 19.017 14.5429 18.2349C14.8685 17.4528 15.3456 16.7443 15.9462 16.151C16.5468 15.5577 17.2587 15.0915 18.0401 14.7798C18.8216 14.4681 19.6568 14.3172 20.4968 14.336C22.1448 14.3728 23.7131 15.0596 24.866 16.2495C26.0188 17.4393 26.6645 19.0376 26.6649 20.7022C26.6654 22.3667 26.0204 23.9654 24.8682 25.1558C23.7159 26.3462 22.148 27.0338 20.4999 27.0714Z" fill="#374957"/>
</svg>
