<svg width="48" height="48" viewBox="0 0 48 48" fill="none" xmlns="http://www.w3.org/2000/svg">
<path d="M11.7073 5.85366H28.0976V0L36.2927 8.19512L28.0976 16.3902V10.5366H11.7073V16.3902L3.5122 8.19512L11.7073 0V5.85366ZM0 38.6341V14.0488H4.68293V38.6341C4.68293 39.8761 5.1763 41.0673 6.05452 41.9455C6.93274 42.8237 8.12386 43.3171 9.36585 43.3171H33.9512V48H9.36585C6.88187 48 4.49963 47.0132 2.74319 45.2568C0.986756 43.5004 0 41.1181 0 38.6341ZM42.1463 36.2927V19.9024H48L39.8049 11.7073L31.6098 19.9024H37.4634V36.2927H31.6098L39.8049 44.4878L48 36.2927H42.1463Z" fill="#374957"/>
</svg>
