<svg width="42" height="42" viewBox="0 0 42 42" fill="none" xmlns="http://www.w3.org/2000/svg">
<path d="M15.8813 22.7508H5.25001C4.75417 22.7508 4.33884 22.5828 4.00401 22.2468C3.66917 21.9108 3.50117 21.4954 3.50001 21.0008C3.49884 20.5061 3.66684 20.0908 4.00401 19.7548C4.34117 19.4188 4.75651 19.2508 5.25001 19.2508H15.8813L11.8125 15.1383C11.4917 14.8174 11.3237 14.4167 11.3085 13.936C11.2933 13.4554 11.4613 13.0394 11.8125 12.6883C12.1333 12.3674 12.5417 12.207 13.0375 12.207C13.5333 12.207 13.9417 12.3674 14.2625 12.6883L21.35 19.7758C21.7 20.1258 21.875 20.5341 21.875 21.0008C21.875 21.4674 21.7 21.8758 21.35 22.2258L14.2625 29.3133C13.9417 29.6341 13.5409 29.8021 13.0603 29.8173C12.5796 29.8324 12.1637 29.6644 11.8125 29.3133C11.4917 28.9924 11.3313 28.5841 11.3313 28.0883C11.3313 27.5924 11.4917 27.1841 11.8125 26.8633L15.8813 22.7508ZM24.5 29.7508C24.0042 29.7508 23.5888 29.5828 23.254 29.2468C22.9192 28.9108 22.7512 28.4954 22.75 28.0008C22.7488 27.5061 22.9168 27.0908 23.254 26.7548C23.5912 26.4188 24.0065 26.2508 24.5 26.2508H36.75C37.2458 26.2508 37.6618 26.4188 37.9978 26.7548C38.3338 27.0908 38.5012 27.5061 38.5 28.0008C38.4988 28.4954 38.3308 28.9114 37.996 29.2485C37.6612 29.5857 37.2458 29.7531 36.75 29.7508H24.5ZM24.5 15.7508C24.0042 15.7508 23.5888 15.5828 23.254 15.2468C22.9192 14.9108 22.7512 14.4954 22.75 14.0008C22.7488 13.5061 22.9168 13.0908 23.254 12.7548C23.5912 12.4188 24.0065 12.2508 24.5 12.2508H36.75C37.2458 12.2508 37.6618 12.4188 37.9978 12.7548C38.3338 13.0908 38.5012 13.5061 38.5 14.0008C38.4988 14.4954 38.3308 14.9114 37.996 15.2485C37.6612 15.5857 37.2458 15.7531 36.75 15.7508H24.5ZM29.75 22.7508C29.2542 22.7508 28.8388 22.5828 28.504 22.2468C28.1692 21.9108 28.0012 21.4954 28 21.0008C27.9988 20.5061 28.1668 20.0908 28.504 19.7548C28.8412 19.4188 29.2565 19.2508 29.75 19.2508H36.75C37.2458 19.2508 37.6618 19.4188 37.9978 19.7548C38.3338 20.0908 38.5012 20.5061 38.5 21.0008C38.4988 21.4954 38.3308 21.9114 37.996 22.2485C37.6612 22.5857 37.2458 22.7531 36.75 22.7508H29.75Z" fill="#374957"/>
</svg>
