<svg width="53" height="44" viewBox="0 0 53 44" fill="none" xmlns="http://www.w3.org/2000/svg">
<path fill-rule="evenodd" clip-rule="evenodd" d="M11.7498 16.3496C13.4207 16.3496 15.0231 15.6859 16.2046 14.5044C17.3861 13.3229 18.0498 11.7205 18.0498 10.0496C18.0498 8.37875 17.3861 6.77632 16.2046 5.59484C15.0231 4.41336 13.4207 3.74961 11.7498 3.74961C10.0789 3.74961 8.47651 4.41336 7.29503 5.59484C6.11355 6.77632 5.4498 8.37875 5.4498 10.0496C5.4498 11.7205 6.11355 13.3229 7.29503 14.5044C8.47651 15.6859 10.0789 16.3496 11.7498 16.3496ZM11.7498 19.4996C12.9908 19.4996 14.2196 19.2552 15.3662 18.7803C16.5127 18.3054 17.5544 17.6093 18.432 16.7318C19.3095 15.8543 20.0056 14.8125 20.4805 13.666C20.9554 12.5194 21.1998 11.2906 21.1998 10.0496C21.1998 8.80862 20.9554 7.57978 20.4805 6.43325C20.0056 5.28672 19.3095 4.24496 18.432 3.36745C17.5544 2.48994 16.5127 1.79386 15.3662 1.31895C14.2196 0.844041 12.9908 0.599609 11.7498 0.599609C9.24351 0.599609 6.83986 1.59523 5.06765 3.36745C3.29543 5.13967 2.2998 7.54331 2.2998 10.0496C2.2998 12.5559 3.29543 14.9595 5.06765 16.7318C6.83986 18.504 9.24351 19.4996 11.7498 19.4996Z" fill="#374957"/>
<path fill-rule="evenodd" clip-rule="evenodd" d="M8.13971 16.0229C8.28638 16.1693 8.40275 16.3431 8.48215 16.5344C8.56155 16.7258 8.60242 16.9309 8.60242 17.138C8.60242 17.3452 8.56155 17.5503 8.48215 17.7417C8.40275 17.933 8.28638 18.1068 8.13971 18.2531L7.07501 19.3147C5.02604 21.3642 3.87488 24.1436 3.87461 27.0416V32.888C3.87461 33.3058 3.70867 33.7064 3.4133 34.0017C3.11793 34.2971 2.71733 34.463 2.29961 34.463C1.88189 34.463 1.48129 34.2971 1.18592 34.0017C0.890546 33.7064 0.724609 33.3058 0.724609 32.888V27.0416C0.725056 23.3082 2.20821 19.7278 4.84796 17.0877L5.90951 16.0229C6.05581 15.8763 6.22962 15.7599 6.42096 15.6805C6.61231 15.6011 6.81744 15.5602 7.02461 15.5602C7.23178 15.5602 7.43691 15.6011 7.62826 15.6805C7.8196 15.7599 7.99341 15.8763 8.13971 16.0229ZM45.2845 15.0779C45.1378 15.2243 45.0215 15.3981 44.9421 15.5894C44.8627 15.7808 44.8218 15.9859 44.8218 16.193C44.8218 16.4002 44.8627 16.6053 44.9421 16.7967C45.0215 16.988 45.1378 17.1618 45.2845 17.3081L46.3492 18.3697C48.3982 20.4192 49.5493 23.1986 49.5496 26.0966V32.888C49.5496 33.3058 49.7155 33.7064 50.0109 34.0017C50.3063 34.2971 50.7069 34.463 51.1246 34.463C51.5423 34.463 51.9429 34.2971 52.2383 34.0017C52.5337 33.7064 52.6996 33.3058 52.6996 32.888V26.0966C52.6992 22.3632 51.216 18.7828 48.5763 16.1426L47.5147 15.0779C47.3684 14.9313 47.1946 14.8149 47.0033 14.7355C46.8119 14.6561 46.6068 14.6152 46.3996 14.6152C46.1924 14.6152 45.9873 14.6561 45.796 14.7355C45.6046 14.8149 45.4308 14.9313 45.2845 15.0779Z" fill="#374957"/>
<path fill-rule="evenodd" clip-rule="evenodd" d="M40.0994 16.3496C38.4286 16.3496 36.8261 15.6859 35.6446 14.5044C34.4632 13.3229 33.7994 11.7205 33.7994 10.0496C33.7994 8.37875 34.4632 6.77632 35.6446 5.59484C36.8261 4.41336 38.4286 3.74961 40.0994 3.74961C41.7703 3.74961 43.3727 4.41336 44.5542 5.59484C45.7357 6.77632 46.3994 8.37875 46.3994 10.0496C46.3994 11.7205 45.7357 13.3229 44.5542 14.5044C43.3727 15.6859 41.7703 16.3496 40.0994 16.3496ZM40.0994 19.4996C38.8584 19.4996 37.6296 19.2552 36.4831 18.7803C35.3365 18.3054 34.2948 17.6093 33.4173 16.7318C32.5397 15.8543 31.8437 14.8125 31.3688 13.666C30.8938 12.5194 30.6494 11.2906 30.6494 10.0496C30.6494 8.80862 30.8938 7.57978 31.3688 6.43325C31.8437 5.28672 32.5397 4.24496 33.4173 3.36745C34.2948 2.48994 35.3365 1.79386 36.4831 1.31895C37.6296 0.844041 38.8584 0.599609 40.0994 0.599609C42.6057 0.599609 45.0094 1.59523 46.7816 3.36745C48.5538 5.13967 49.5494 7.54331 49.5494 10.0496C49.5494 12.5559 48.5538 14.9595 46.7816 16.7318C45.0094 18.504 42.6057 19.4996 40.0994 19.4996ZM25.9244 29.7371C23.8358 29.7371 21.8328 30.5668 20.3559 32.0436C18.8791 33.5205 18.0494 35.5235 18.0494 37.6121V41.7071C18.0494 42.1248 17.8835 42.5254 17.5881 42.8208C17.2927 43.1162 16.8921 43.2821 16.4744 43.2821C16.0567 43.2821 15.6561 43.1162 15.3607 42.8208C15.0654 42.5254 14.8994 42.1248 14.8994 41.7071V37.6121C14.8994 34.6881 16.061 31.8838 18.1286 29.8163C20.1962 27.7487 23.0004 26.5871 25.9244 26.5871C28.8484 26.5871 31.6527 27.7487 33.7203 29.8163C35.7879 31.8838 36.9494 34.6881 36.9494 37.6121V41.7071C36.9494 42.1248 36.7835 42.5254 36.4881 42.8208C36.1927 43.1162 35.7921 43.2821 35.3744 43.2821C34.9567 43.2821 34.5561 43.1162 34.2607 42.8208C33.9654 42.5254 33.7994 42.1248 33.7994 41.7071V37.6121C33.7994 36.5779 33.5957 35.5539 33.2 34.5985C32.8042 33.643 32.2241 32.7749 31.4929 32.0436C30.7616 31.3124 29.8935 30.7323 28.938 30.3366C27.9826 29.9408 26.9586 29.7371 25.9244 29.7371Z" fill="#374957"/>
<path fill-rule="evenodd" clip-rule="evenodd" d="M25.9246 25.0117C27.5955 25.0117 29.1979 24.348 30.3794 23.1665C31.5609 21.985 32.2246 20.3826 32.2246 18.7117C32.2246 17.0409 31.5609 15.4384 30.3794 14.2569C29.1979 13.0755 27.5955 12.4117 25.9246 12.4117C24.2537 12.4117 22.6513 13.0755 21.4698 14.2569C20.2884 15.4384 19.6246 17.0409 19.6246 18.7117C19.6246 20.3826 20.2884 21.985 21.4698 23.1665C22.6513 24.348 24.2537 25.0117 25.9246 25.0117ZM25.9246 28.1617C28.4309 28.1617 30.8345 27.1661 32.6068 25.3939C34.379 23.6217 35.3746 21.218 35.3746 18.7117C35.3746 16.2054 34.379 13.8018 32.6068 12.0296C30.8345 10.2573 28.4309 9.26172 25.9246 9.26172C23.4183 9.26172 21.0147 10.2573 19.2425 12.0296C17.4702 13.8018 16.4746 16.2054 16.4746 18.7117C16.4746 21.218 17.4702 23.6217 19.2425 25.3939C21.0147 27.1661 23.4183 28.1617 25.9246 28.1617Z" fill="#374957"/>
</svg>
